# xmcd CD database file
#
# Track frame offsets:
#	150
#	3110
#	32186
#	60651
#	89517
#	114718
#	138459
#	164982
#	194111
#	214247
#	242449
#	264729
#	290643
#	312068
#
# Disc length: 4494 seconds
#
# Revision: 0
# Processed by: cddbd v1.4PL0 Copyright (c) Steve Scherf et al.
# Submitted via: NeoAudio 9.9.9
#
DISCID=d8118c0e
DTITLE=James Aebersold - Killer Joe - vol 70
DYEAR=1900
DGENRE=Jazz
TTITLE0=tuning notes
TTITLE1=killer jow
TTITLE2=sugar
TTITLE3=the girl from ipanema
TTITLE4=elvinish
TTITLE5=blue moon
TTITLE6=afternoon in paris
TTITLE7=stop-time blues
TTITLE8=misty
TTITLE9=sweet georgia brown
TTITLE10=ladybird
TTITLE11=you stepped out of a dream
TTITLE12=birthplace blues
TTITLE13=Mr. P.C.
EXTD=
EXTT0=
EXTT1=
EXTT2=
EXTT3=
EXTT4=
EXTT5=
EXTT6=
EXTT7=
EXTT8=
EXTT9=
EXTT10=
EXTT11=
EXTT12=
EXTT13=
PLAYORDER=
